<?xml version="1.0" encoding="UTF-8"?>
<svg xmlns="http://www.w3.org/2000/svg" viewBox="0 0 461.78 284.15">
  <g id="wristband-right">
    <rect x="442.21" y="100.69" width="19.07" height="50.37" fill="none" stroke="#221f20" stroke-miterlimit="10"/>
  </g>
  <g id="wristband-left">
    <rect x=".5" y="100.7" width="19.07" height="50.37" fill="none" stroke="#221f20" stroke-miterlimit="10"/>
  </g>
  <g id="arm-top-left">
    <path d="M142.69,51.58v100.33h-39.58V57.53s19.47-4.99,39.58-5.95Z" fill="none" stroke="#221f20" stroke-miterlimit="10"/>
  </g>
  <g id="arm-top-right">
    <path d="M319.76,51.58v100.33s39.58,0,39.58,0V57.53s-19.47-4.99-39.58-5.95Z" fill="none" stroke="#221f20" stroke-miterlimit="10"/>
  </g>
  <g id="arm-middle-left">
    <path d="M103.1,57.53v94.38h-41.93v-81.73s21.14-8.98,41.93-12.64Z" fill="none" stroke="#221f20" stroke-miterlimit="10"/>
  </g>
  <g id="arm-middle-right">
    <path d="M359.34,57.53v94.38s41.93,0,41.93,0v-81.73s-21.14-8.98-41.93-12.64Z" fill="none" stroke="#221f20" stroke-miterlimit="10"/>
  </g>
  <g id="arm-bottom-left">
    <path d="M61.17,70.17v81.73H19.98v-52.67s7.75-14.45,41.19-29.06Z" fill="none" stroke="#221f20" stroke-miterlimit="10"/>
  </g>
  <g id="arm-bottom-right">
    <path d="M401.28,70.17v81.73s41.19,0,41.19,0v-52.67s-7.75-14.45-41.19-29.06Z" fill="none" stroke="#221f20" stroke-miterlimit="10"/>
  </g>
</svg>