<svg width="18" height="12" viewBox="0 0 18 12" fill="none" xmlns="http://www.w3.org/2000/svg">
<path fill-rule="evenodd" clip-rule="evenodd" d="M18 6C18 5.82321 17.9323 5.65367 17.8117 5.52866C17.6912 5.40365 17.5277 5.33343 17.3572 5.33343L2.19572 5.33343L6.24161 1.13935C6.36231 1.01418 6.43012 0.844424 6.43012 0.667415C6.43012 0.490405 6.36231 0.320645 6.24161 0.195481C6.1209 0.070316 5.95719 -3.20192e-07 5.78649 -3.20192e-07C5.61579 -3.20192e-07 5.45208 0.070316 5.33138 0.195481L0.188851 5.52807C0.128988 5.58998 0.0814933 5.66354 0.049087 5.74452C0.0166808 5.82551 0 5.91232 0 6C0 6.08768 0.0166808 6.17449 0.049087 6.25547C0.0814933 6.33646 0.128988 6.41001 0.188851 6.47193L5.33138 11.8045C5.39115 11.8665 5.4621 11.9157 5.54019 11.9492C5.61828 11.9827 5.70197 12 5.78649 12C5.95719 12 6.1209 11.9297 6.24161 11.8045C6.36231 11.6794 6.43012 11.5096 6.43012 11.3326C6.43012 11.1556 6.36231 10.9858 6.24161 10.8607L2.19572 6.66657L17.3572 6.66657C17.5277 6.66657 17.6912 6.59634 17.8117 6.47134C17.9323 6.34633 18 6.17679 18 6Z" fill="black"/>
</svg>
