<?xml version="1.0" encoding="UTF-8"?>
<svg xmlns="http://www.w3.org/2000/svg" viewBox="0 0 461.78 284.15">
  <g id="waistband">
    <rect x="148.25" y="259.31" width="165.63" height="24.35" fill="#fff" stroke="#221f20" stroke-miterlimit="10"/>
  </g>
  <g id="wristband-right">
    <rect x="442.21" y="100.69" width="19.07" height="50.37" fill="none" stroke="#221f20" stroke-miterlimit="10"/>
  </g>
  <g id="wristband-left">
    <rect x=".5" y="100.7" width="19.07" height="50.37" fill="none" stroke="#221f20" stroke-miterlimit="10"/>
  </g>
  <g id="body-left-lower">
    <path d="M231.55,152.72h-88.99s-.79,59.62,4.67,106.49h84.31v-106.49Z" fill="none" stroke="#221f20" stroke-miterlimit="10"/>
  </g>
  <g id="body-right-lower">
    <path d="M231.55,152.72h88.17s.79,59.62-4.63,106.49h-83.54v-106.49Z" fill="none" stroke="#221f20" stroke-miterlimit="10"/>
  </g>
  <g id="lower-left-arm">
    <rect x="19.57" y="112.98" width="122.98" height="38.92" fill="none" stroke="#221f20" stroke-miterlimit="10"/>
  </g>
  <g id="lower-right-arm">
    <rect x="319.76" y="112.98" width="122.71" height="38.92" fill="none" stroke="#221f20" stroke-miterlimit="10"/>
  </g>
  <g id="upper-left-arm">
    <path d="M142.55,112.96H19.84v-13.73s20.73-37.59,122.71-47.65v61.4-.02Z" fill="none" stroke="#221f20" stroke-miterlimit="10"/>
  </g>
  <g id="upper-right-arm">
    <path d="M319.76,112.96h122.71v-13.73s-20.73-37.59-122.71-47.65v61.4-.02Z" fill="none" stroke="#221f20" stroke-miterlimit="10"/>
  </g>
  <g id="body-left-top">
    <path d="M231.86,55.17s-31.73,1.57-50.05-12.91c0,0-31.17,5.96-39.25,9.12v101.34h89.31V55.17Z" fill="none" stroke="#221f20" stroke-miterlimit="10"/>
  </g>
  <g id="body-right-top">
    <path d="M231.31,55.17s32.84,1.57,49.58-12.91c0,0,30.72,5.96,38.72,9.12l.15,101.34h-88.45V55.17Z" fill="none" stroke="#221f20" stroke-miterlimit="10"/>
  </g>
  <g id="collar">
    <g>
      <path d="M271.87.5h-39.57l-.21,54.16c39.72,0,48.94-13.17,48.94-13.17,0-24.8-9.16-41-9.16-41Z" fill="none" stroke="#221f20" stroke-miterlimit="10"/>
      <path d="M182.78,41.5s8.94,13.17,49.31,13.17l.22-54.16h-40.22s-9.31,16.19-9.31,41Z" fill="none" stroke="#221f20" stroke-miterlimit="10"/>
    </g>
  </g>
  <g id="zips">
    <g id="collar-2" data-name="collar">
      <g>
        <line x1="231.55" y1="3.96" x2="231.55" y2="5.79" fill="none" stroke="#b7b9ba" stroke-miterlimit="10" stroke-width="2.5"/>
        <line x1="231.55" y1="9.47" x2="231.55" y2="279.88" fill="none" stroke="#b7b9ba" stroke-dasharray="2.02 2.02" stroke-miterlimit="10" stroke-width="2.5"/>
        <line x1="231.55" y1="281.73" x2="231.55" y2="283.55" fill="none" stroke="#b7b9ba" stroke-miterlimit="10" stroke-width="2.5"/>
      </g>
      <g>
        <line x1="155.78" y1="198.44" x2="155.78" y2="200.26" fill="none" stroke="#b7b9ba" stroke-miterlimit="10" stroke-width="2.5"/>
        <line x1="155.78" y1="204.15" x2="155.78" y2="248.94" fill="none" stroke="#b7b9ba" stroke-dasharray="2.14 2.14" stroke-miterlimit="10" stroke-width="2.5"/>
        <line x1="155.78" y1="250.89" x2="155.78" y2="252.71" fill="none" stroke="#b7b9ba" stroke-miterlimit="10" stroke-width="2.5"/>
      </g>
      <g>
        <line x1="306.99" y1="198.44" x2="306.99" y2="200.26" fill="none" stroke="#99c354" stroke-miterlimit="10" stroke-width="2.5"/>
        <line x1="306.99" y1="204.15" x2="306.99" y2="248.94" fill="none" stroke="#b7b9ba" stroke-dasharray="2.14 2.14" stroke-miterlimit="10" stroke-width="2.5"/>
        <line x1="306.99" y1="250.89" x2="306.99" y2="252.71" fill="none" stroke="#99c354" stroke-miterlimit="10" stroke-width="2.5"/>
      </g>
    </g>
  </g>
</svg>