<svg width="42" height="50" viewBox="0 0 42 50" fill="none" xmlns="http://www.w3.org/2000/svg">
<path d="M40.7684 23.2877L13.6851 4.53775C13.3725 4.32148 13.0068 4.19484 12.6274 4.17153C12.248 4.14823 11.8695 4.22915 11.5328 4.40553C11.1962 4.58192 10.9142 4.84705 10.7174 5.1722C10.5206 5.49736 10.4165 5.87017 10.4163 6.25025L10.4163 43.7502C10.4161 44.1305 10.5199 44.5036 10.7165 44.829C10.9132 45.1545 11.1952 45.4199 11.5319 45.5966C11.8687 45.7732 12.2473 45.8543 12.6269 45.8311C13.0064 45.8079 13.3724 45.6812 13.6851 45.4648L40.7684 26.7148C41.0443 26.5223 41.2697 26.2659 41.4253 25.9676C41.5809 25.6693 41.6621 25.3378 41.6621 25.0013C41.6621 24.6648 41.5809 24.3333 41.4253 24.035C41.2697 23.7367 41.0443 23.4803 40.7684 23.2877Z" fill="black"/>
</svg>
