<?xml version="1.0" encoding="UTF-8"?>
<svg id="Layer_1" data-name="Layer 1" xmlns="http://www.w3.org/2000/svg" width="39.82" height="98.21" viewBox="0 0 39.82 98.21">
  <polygon points="17.94 31.09 25.53 32.56 25.6 33.68 17.76 33.08 17.94 31.09" fill="#d2af8e"/>
  <path d="M33.12,33.56s4.49-1.13,5.57,3.76c0,0,2.25,17.71-.41,28.38,0,0-2.54,7.85-6.38,15.13,0,0-1.36,3.04-1.5,6.61,0,0-6.92,3.48-19.72-1.18,0,0-.02-3.35-.75-7.35-.06-.33-.12-.67-.19-1.01-.62-3.07-1.63-6.77-3.29-10.54,0,0-6.8-13.9-6.14-16.9,0,0-.2-7.64,6.97-17.11,0,0,.84-1.16,1.21-.98" fill="#d2af8e" stroke="#231f20" stroke-linecap="round" stroke-miterlimit="10" stroke-width=".5"/>
  <g>
    <path d="M24.93,32.6c-.55-1.2-2.3-2.23-2.3-2.23-2.45-1.19-4.1-.62-4.1-.62-1.26.35-2.07,2.06-2.07,2.06" fill="#d2af8e" stroke="#231f20" stroke-linecap="round" stroke-miterlimit="10" stroke-width=".5"/>
    <path d="M7.93,46.9c-.23-3.48.71-17.06.71-17.06l.78-17.22c-.02-2.8.92-4.07.92-4.07,0,0-.84,5.27,2.35,5.08,1.45-.08,0,0,0,0,0,0,2.24.97,2.6-5.41,0,0,.63.44.63,9l.78,21.24" fill="#d2af8e" stroke="#231f20" stroke-linecap="round" stroke-miterlimit="10" stroke-width=".5"/>
  </g>
  <path d="M31.89,80.83c3.68,3.14,3.21,5.96,3.21,5.96-.31,4.61-10.22,5.21-10.22,5.21-15.93.3-19.33-6.38-19.33-6.38-2.92-4.77,4.08-7.27,4.08-7.27l.36.97c-7.06,4.34,1.48,7.29,1.48,7.29,13.13,4.01,20.22.59,20.22.59,4.52-1.78-.07-5.71-.07-5.71l.27-.68Z" fill="#e5b822" stroke="#231f20" stroke-linecap="round" stroke-miterlimit="10" stroke-width=".5"/>
  <path d="M33.96,89.06c.87.53.59,1.59.59,1.59-1.1,4.75-8.18,6.31-8.18,6.31-13.31,3.2-20.24-2.36-20.24-2.36-4.55-3.8.1-8.06.1-8.06l.68.7s-4,4.47,6.55,6.18c0,0,13.39,1.67,19.13-3.38l1.37-.98Z" fill="#e5b822" stroke="#231f20" stroke-linecap="round" stroke-miterlimit="10" stroke-width=".5"/>
  <path d="M10.93,22.94c.7.62,1.7.84,2.61.63.26-.06.5-.16.73-.29.14-.08.01-.3-.13-.22-.73.42-1.67.44-2.44.09-.22-.1-.42-.23-.6-.39-.12-.11-.3.07-.18.18h0Z" fill="#231f20"/>
  <path d="M12.04,22.38c.5.18,1.06.19,1.56.02.06-.02.11-.09.09-.15-.02-.06-.09-.11-.15-.09-.12.04-.24.07-.36.09-.02,0-.04,0-.05,0,.02,0-.02,0-.02,0-.03,0-.06,0-.09,0-.06,0-.12,0-.19,0s-.12,0-.19,0c-.07,0-.1-.01-.17-.02-.12-.02-.24-.06-.36-.1-.06-.02-.14.03-.15.09-.02.07.02.13.09.15h0Z" fill="#231f20"/>
  <path d="M11.3,45.78c1.05.48,2.27.54,3.36.16.15-.05.09-.29-.07-.24-1.02.36-2.18.31-3.16-.14-.06-.03-.13-.02-.17.04-.03.05-.02.14.04.17h0Z" fill="#231f20"/>
  <path d="M18.83,43.7c.95-.42,2.09-.29,2.95.28.24.16.46.36.65.58.1.12.28-.05.18-.18-.71-.86-1.88-1.29-2.98-1.15-.32.04-.62.12-.92.26-.15.07-.02.28.13.22h0Z" fill="#231f20"/>
  <path d="M26.5,45.02c.32-.51.85-.88,1.43-1.03.17-.04.33-.06.5-.06.16,0,.16-.25,0-.25-.67.01-1.32.29-1.8.77-.13.14-.25.29-.36.45-.09.14.13.26.22.13h0Z" fill="#231f20"/>
  <path d="M29.91,43.86s.06,0,.09.01c-.03,0,.02,0,.02,0,.02,0,.03,0,.05,0,.06.01.12.02.18.04.12.03.23.07.34.11,0,0,.05.02.02,0,.01,0,.03.01.04.02.03.01.06.03.08.04.05.03.1.05.15.08.05.03.11.06.16.1.03.02.05.04.08.05.01,0,.02.02.04.03-.02-.01.02.01.02.02.05.04.13.05.18,0,.04-.05.05-.13,0-.18-.32-.26-.69-.44-1.09-.53-.12-.03-.24-.05-.36-.06-.07,0-.13.06-.12.12,0,.07.06.12.12.12h0Z" fill="#231f20"/>
  <path d="M36.55,45.7c.1.05.2.11.3.17.05.03.09.06.14.1.02.01,0,0,0,0,0,0,.01,0,.02.01.01,0,.02.02.03.03.02.02.04.04.07.06.09.08.17.16.25.24.04.04.07.09.11.13,0,0,0,.01.01.02.01.02-.02-.02,0,0,0,.01.02.02.02.03.02.02.03.05.05.07.07.11.14.22.2.33.03.06.12.08.17.04.06-.04.08-.11.04-.17-.21-.43-.54-.8-.94-1.07-.11-.08-.22-.14-.34-.2-.06-.03-.14-.02-.17.04-.03.06-.02.14.04.17h0Z" fill="#231f20"/>
  <circle cx="12.64" cy="16.4" r=".45" fill="#231f20"/>
  <circle cx="12.71" cy="17.55" r=".38" fill="#231f20"/>
  <circle cx="20.78" cy="34.64" r=".33" fill="#231f20"/>
  <circle cx="20.84" cy="33.48" r=".33" fill="#231f20"/>
  <g>
    <polyline points="28.94 79.82 28.07 80.49 27.9 79.35" fill="none" stroke="#231f20" stroke-linecap="round" stroke-miterlimit="10" stroke-width=".15"/>
    <polyline points="28.82 80.3 27.91 80.94 27.7 79.84" fill="none" stroke="#231f20" stroke-linecap="round" stroke-miterlimit="10" stroke-width=".15"/>
    <polyline points="28.61 80.8 27.68 81.51 27.48 80.26" fill="none" stroke="#231f20" stroke-linecap="round" stroke-miterlimit="10" stroke-width=".15"/>
    <polyline points="32.57 69.39 29.66 76.61 27.71 81.43" fill="none" stroke="#231f20" stroke-linecap="round" stroke-miterlimit="10" stroke-width=".25"/>
    <polyline points="32.53 70.63 31.87 71.02 31.73 70.31" fill="none" stroke="#231f20" stroke-linecap="round" stroke-miterlimit="10" stroke-width=".15"/>
    <polyline points="32.77 70.03 32.18 70.35 31.97 69.71" fill="none" stroke="#231f20" stroke-linecap="round" stroke-miterlimit="10" stroke-width=".15"/>
    <polyline points="33.6 68.85 32.57 69.39 32.28 68.32" fill="none" stroke="#231f20" stroke-linecap="round" stroke-miterlimit="10" stroke-width=".15"/>
    <line x1="33.85" y1="68.23" x2="32.45" y2="68.95" fill="none" stroke="#231f20" stroke-linecap="round" stroke-miterlimit="10" stroke-width=".15"/>
    <line x1="32.53" y1="67.7" x2="32.99" y2="69.17" fill="none" stroke="#231f20" stroke-linecap="round" stroke-miterlimit="10" stroke-width=".15"/>
    <polyline points="33.37 68.97 32.71 66.61 33.93 63.58 34.2 65.34 35.67 64.29 34.45 67.31 32.34 68.55" fill="none" stroke="#231f20" stroke-linecap="round" stroke-miterlimit="10" stroke-width=".15"/>
    <polyline points="34.88 64.48 34.46 64.8 34.39 64.25" fill="none" stroke="#231f20" stroke-linecap="round" stroke-miterlimit="10" stroke-width=".15"/>
    <line x1="34.7" y1="66.7" x2="32.6" y2="67.93" fill="none" stroke="#231f20" stroke-linecap="round" stroke-miterlimit="10" stroke-width=".15"/>
    <line x1="32.96" y1="65.99" x2="33.63" y2="68.34" fill="none" stroke="#231f20" stroke-linecap="round" stroke-miterlimit="10" stroke-width=".15"/>
    <line x1="35.02" y1="65.91" x2="32.88" y2="67.22" fill="none" stroke="#231f20" stroke-linecap="round" stroke-miterlimit="10" stroke-width=".15"/>
    <line x1="33.28" y1="65.2" x2="33.9" y2="67.63" fill="none" stroke="#231f20" stroke-linecap="round" stroke-miterlimit="10" stroke-width=".15"/>
    <line x1="35.32" y1="65.15" x2="32.78" y2="66.84" fill="none" stroke="#231f20" stroke-linecap="round" stroke-miterlimit="10" stroke-width=".15"/>
    <line x1="33.58" y1="64.44" x2="34.24" y2="67.43" fill="none" stroke="#231f20" stroke-linecap="round" stroke-miterlimit="10" stroke-width=".15"/>
    <line x1="33.94" y1="66.05" x2="34.46" y2="64.8" fill="none" stroke="#231f20" stroke-linecap="round" stroke-miterlimit="10" stroke-width=".15"/>
    <polygon points="30.07 76.35 29.66 76.61 29.55 76.14 30.07 76.35" fill="#231f20"/>
    <polyline points="29.78 75.57 30.3 75.78 29.89 76.04" fill="#231f20"/>
    <polyline points="30.01 74.99 30.53 75.2 30.11 75.46" fill="#231f20"/>
    <polyline points="30.24 74.42 30.77 74.63 30.35 74.89" fill="#231f20"/>
    <polyline points="30.47 73.84 31 74.06 30.58 74.32" fill="#231f20"/>
  </g>
  <g>
    <polyline points="20.31 37.48 20.4 36.16 20.93 36.19 20.85 37.51 21.87 37.58 21.83 38.1 20.8 38.03" fill="none" stroke="#231f20" stroke-linecap="round" stroke-miterlimit="10" stroke-width=".2"/>
    <polyline points="20.81 38.03 20.64 40.59 20.11 40.56 20.28 38 19.26 37.93 19.29 37.41 20.33 37.48" fill="none" stroke="#231f20" stroke-linecap="round" stroke-miterlimit="10" stroke-width=".2"/>
  </g>
  <path d="M14.78,11.31c.89-5.38-.87-9.37-.87-9.37-1.55-3.89-2.57.17-2.57.17-1.55,4.85-.91,9.45-.91,9.45,0,0,.29,2.21,2.24,2.06,0,0,1.68.21,2.1-2.32Z" fill="#f171ab" stroke="#231f20" stroke-linecap="round" stroke-miterlimit="10" stroke-width=".5"/>
  <g>
    <path d="M7.82,31.36s-1,.07-.87,1.8c0,0-.12,1.88,1.11,1.8" fill="#e7b921" stroke="#231f20" stroke-linecap="round" stroke-miterlimit="10" stroke-width=".25"/>
    <path d="M17.19,31.17s.89-.06.98,1.67c0,0,.34,1.85-.75,1.92" fill="#e7b921" stroke="#231f20" stroke-linecap="round" stroke-miterlimit="10" stroke-width=".25"/>
    <g>
      <polygon points="12.64 27.5 17.11 30.07 17.28 35.31 12.99 38.17 8.1 35.61 7.94 30.51 12.64 27.5" fill="#b4e2f1" stroke="#231f20" stroke-linecap="round" stroke-miterlimit="10" stroke-width=".25"/>
      <polygon points="12.71 29.67 15.51 31.15 15.62 34.34 12.92 36.06 10.04 34.46 9.94 31.33 12.71 29.67" fill="#b4e2f1" stroke="#231f20" stroke-miterlimit="10" stroke-width=".15"/>
      <line x1="12.6" y1="27.5" x2="12.71" y2="29.67" fill="#b4e2f1" stroke="#231f20" stroke-linecap="round" stroke-miterlimit="10" stroke-width=".15"/>
      <line x1="17.11" y1="30.07" x2="15.51" y2="31.15" fill="#b4e2f1" stroke="#231f20" stroke-linecap="round" stroke-miterlimit="10" stroke-width=".15"/>
      <line x1="15.62" y1="34.34" x2="17.28" y2="35.31" fill="#b4e2f1" stroke="#231f20" stroke-linecap="round" stroke-miterlimit="10" stroke-width=".15"/>
      <line x1="12.99" y1="38.17" x2="12.92" y2="36.06" fill="#b4e2f1" stroke="#231f20" stroke-linecap="round" stroke-miterlimit="10" stroke-width=".15"/>
      <line x1="8.1" y1="35.61" x2="10.04" y2="34.46" fill="#b4e2f1" stroke="#231f20" stroke-linecap="round" stroke-miterlimit="10" stroke-width=".15"/>
      <line x1="7.94" y1="30.51" x2="9.94" y2="31.33" fill="#b4e2f1" stroke="#231f20" stroke-linecap="round" stroke-miterlimit="10" stroke-width=".15"/>
    </g>
  </g>
  <ellipse cx="12.99" cy="4.43" rx=".76" ry="1.89" transform="translate(-.26 .87) rotate(-3.79)" fill="#f9c7dd"/>
  <ellipse cx="12.96" cy="3.9" rx=".38" ry=".95" transform="translate(-.23 .86) rotate(-3.79)" fill="#fff" stroke="#f9c7dd" stroke-miterlimit="10" stroke-width=".1"/>
  <path d="M24.74,39.34l.23-6.08s.29-3.6,4.9-2.69c0,0,2.64.26,3.25,2.98.05.23.08.49.1.76l-.25,5.29" fill="#d2af8e" stroke="#231f20" stroke-linecap="round" stroke-miterlimit="10" stroke-width=".5"/>
  <g>
    <g>
      <polygon points="27.36 29.6 25.46 31.5 29.15 36.05 33.95 32.86 32.94 30.62 31.7 29.66 29 29.17 27.36 29.6" fill="#f067a6" stroke="#231f20" stroke-linecap="round" stroke-miterlimit="10" stroke-width=".25"/>
      <polyline points="32.94 30.62 31.35 31.06 28.65 30.57 27.36 29.6" fill="#f067a6" stroke="#231f20" stroke-linecap="round" stroke-miterlimit="10" stroke-width=".15"/>
      <polyline points="33.95 32.86 31.58 33.57 27.51 32.83 25.46 31.5" fill="#f067a6" stroke="#231f20" stroke-linecap="round" stroke-miterlimit="10" stroke-width=".15"/>
      <polyline points="31.34 31.14 31.57 33.62 29.15 36.05 27.5 32.88 28.64 30.64" fill="#f067a6" stroke="#231f20" stroke-linecap="round" stroke-miterlimit="10" stroke-width=".15"/>
    </g>
    <line x1="27.51" y1="32.83" x2="31.58" y2="33.57" fill="#f067a6" stroke="#231f20" stroke-linecap="round" stroke-miterlimit="10" stroke-width=".15"/>
  </g>
  <path d="M24.39,34.13c-1.9.93.17,2.58.17,2.58.58-.49,2.76-.71,2.76-.71,3.69-.18,6.12,2.14,6.12,2.14,1.33-.35.26-2.27.26-2.27,0,0-.3-.97-1.84-1.47,0,0-1.96.7-4.53-.39,0,0-.96-.83-2.94.13Z" fill="#e6b822" stroke="#231f20" stroke-linecap="round" stroke-miterlimit="10" stroke-width=".25"/>
  <circle cx="29.03" cy="37.57" r=".45" fill="#231f20"/>
  <circle cx="29.03" cy="38.88" r=".38" fill="#231f20"/>
  <circle cx="29.07" cy="40.16" r=".33" fill="#231f20"/>
</svg>