<?xml version="1.0" encoding="UTF-8"?>
<svg id="Layer_1" data-name="Layer 1" xmlns="http://www.w3.org/2000/svg" width="25.6" height="62.85" viewBox="0 0 25.6 62.85">
  <polygon points="11.54 19.93 16.38 20.87 16.43 21.59 11.42 21.2 11.54 19.93" fill="#d2af8e"/>
  <path d="M21.23,21.51s2.87-.72,3.55,2.4c0,0,1.44,11.3-.26,18.11,0,0-1.62,5.01-4.07,9.65,0,0-.87,1.94-.96,4.22,0,0-4.42,2.22-12.59-.75,0,0-.01-2.14-.48-4.69-.04-.21-.08-.43-.12-.65-.4-1.96-1.04-4.32-2.1-6.73,0,0-4.34-8.87-3.92-10.79,0,0-.13-4.88,4.45-10.92,0,0,.54-.74.77-.63" fill="#d2af8e" stroke="#231f20" stroke-linecap="round" stroke-miterlimit="10" stroke-width=".5"/>
  <g>
    <path d="M16,20.9c-.35-.77-1.47-1.42-1.47-1.42-1.56-.76-2.61-.39-2.61-.39-.8.22-1.32,1.31-1.32,1.31" fill="#d2af8e" stroke="#231f20" stroke-linecap="round" stroke-miterlimit="10" stroke-width=".5"/>
    <path d="M5.15,30.02c-.15-2.22.45-10.89.45-10.89l.5-10.99c-.01-1.79.58-2.6.58-2.6,0,0-.53,3.36,1.5,3.25.93-.05,0,0,0,0,0,0,1.43.62,1.66-3.45,0,0,.4.28.4,5.74l.5,13.55" fill="#d2af8e" stroke="#231f20" stroke-linecap="round" stroke-miterlimit="10" stroke-width=".5"/>
  </g>
  <path d="M20.44,51.67c2.35,2.01,2.05,3.81,2.05,3.81-.2,2.94-6.52,3.33-6.52,3.33-10.17.19-12.34-4.07-12.34-4.07-1.86-3.04,2.6-4.64,2.6-4.64l.23.62c-4.51,2.77.94,4.65.94,4.65,8.38,2.56,12.9.38,12.9.38,2.89-1.13-.05-3.64-.05-3.64l.17-.43Z" fill="#e5b822" stroke="#231f20" stroke-linecap="round" stroke-miterlimit="10" stroke-width=".5"/>
  <path d="M21.76,56.93c.56.34.38,1.02.38,1.02-.7,3.03-5.22,4.03-5.22,4.03-8.49,2.04-12.92-1.51-12.92-1.51-2.91-2.42.07-5.14.07-5.14l.44.44s-2.56,2.85,4.18,3.94c0,0,8.55,1.06,12.21-2.16l.87-.63Z" fill="#e5b822" stroke="#231f20" stroke-linecap="round" stroke-miterlimit="10" stroke-width=".5"/>
  <path d="M7.04,14.76c.46.41,1.11.55,1.71.41.17-.04.33-.1.48-.19.14-.08.01-.3-.13-.22-.45.26-1.04.28-1.51.06-.14-.06-.26-.14-.37-.24-.05-.04-.13-.05-.18,0-.05.05-.05.13,0,.18h0Z" fill="#231f20"/>
  <path d="M7.76,14.41c.32.12.69.12,1.02.01.06-.02.11-.09.09-.15-.02-.06-.09-.11-.15-.09-.08.03-.15.05-.23.06,0,0-.02,0-.03,0h.02s-.01,0-.02,0c-.02,0-.04,0-.06,0-.04,0-.08,0-.12,0s-.08,0-.12,0c0,0-.02,0-.03,0s-.05,0,0,0c-.02,0-.04,0-.06,0-.08-.01-.16-.04-.23-.06-.06-.02-.14.03-.15.09-.02.07.02.13.09.15h0Z" fill="#231f20"/>
  <path d="M7.28,29.34c.68.31,1.47.35,2.18.11.06-.02.11-.09.09-.15-.02-.06-.09-.11-.15-.09-.64.22-1.36.2-1.98-.08-.06-.03-.13-.02-.17.04-.03.05-.02.14.04.17h0Z" fill="#231f20"/>
  <path d="M12.13,28.02c.59-.26,1.3-.17,1.84.18.15.1.29.22.4.36.04.05.13.04.18,0,.05-.05.04-.12,0-.18-.46-.56-1.22-.84-1.94-.75-.21.03-.41.08-.61.17-.06.03-.08.12-.04.17.04.06.11.07.17.04h0Z" fill="#231f20"/>
  <path d="M17.04,28.85s.02-.04.04-.06c0-.01.02-.02.02-.03,0,0,.03-.04.01-.01.03-.04.06-.08.1-.11s.07-.07.11-.1c.02-.02.04-.03.05-.04s0,0,0,0c0,0,.01,0,.02-.01.01,0,.02-.02.03-.02.08-.06.17-.11.26-.15.01,0,.02,0,.03-.01,0,0,.02,0,0,0-.01,0,0,0,0,0,.02,0,.05-.02.07-.03.05-.02.09-.03.14-.04.03,0,.05-.01.08-.02.01,0,.03,0,.04,0,0,0,.01,0,.02,0,.01,0,.02,0,0,0,.02,0,.06,0,.08,0,.03,0,.06,0,.09,0,.07,0,.13-.06.12-.12s-.05-.13-.12-.12c-.44,0-.87.19-1.18.5-.09.09-.17.19-.23.3-.03.06-.01.14.04.17.06.03.13.01.17-.04h0Z" fill="#231f20"/>
  <path d="M19.18,28.13s.04,0,.07,0h-.03c.07,0,.15.02.22.04.03,0,.07.02.1.03.02,0,.04.01.06.02,0,0,.01,0,.02,0,0,0,.04.02,0,0,.03.02.07.03.1.05.03.02.06.03.09.05.03.02.06.04.09.06.01,0,.03.02.04.03,0,0,.02.01.02.02-.03-.02,0,0,0,0,.03.02.05.04.09.04.03,0,.07-.01.09-.04.04-.05.05-.13,0-.18-.21-.17-.45-.29-.72-.35-.08-.02-.16-.03-.24-.04-.03,0-.07.02-.09.04-.02.02-.04.06-.04.09s.01.07.04.09.05.03.09.04h0Z" fill="#231f20"/>
  <path d="M23.39,29.29c.1.05.2.11.29.18l-.03-.02c.12.09.23.2.32.32l-.02-.03c.07.09.13.19.18.29.03.06.12.08.17.04.06-.04.08-.11.04-.17-.14-.28-.36-.52-.61-.7-.07-.05-.14-.09-.22-.13-.06-.03-.14-.02-.17.04-.03.06-.02.14.04.17h0Z" fill="#231f20"/>
  <circle cx="8.15" cy="10.56" r=".29" fill="#231f20"/>
  <circle cx="8.2" cy="11.29" r=".24" fill="#231f20"/>
  <circle cx="13.35" cy="22.2" r=".21" fill="#231f20"/>
  <circle cx="13.39" cy="21.46" r=".21" fill="#231f20"/>
  <g>
    <polyline points="18.56 51.03 18.01 51.46 17.9 50.73" fill="none" stroke="#231f20" stroke-linecap="round" stroke-miterlimit="10" stroke-width=".15"/>
    <polyline points="18.48 51.34 17.9 51.74 17.77 51.04" fill="none" stroke="#231f20" stroke-linecap="round" stroke-miterlimit="10" stroke-width=".15"/>
    <polyline points="18.35 51.66 17.76 52.11 17.63 51.31" fill="none" stroke="#231f20" stroke-linecap="round" stroke-miterlimit="10" stroke-width=".15"/>
    <polyline points="20.88 44.37 19.02 48.98 17.78 52.06" fill="none" stroke="#231f20" stroke-linecap="round" stroke-miterlimit="10" stroke-width=".25"/>
    <polyline points="20.85 45.17 20.43 45.41 20.34 44.96" fill="none" stroke="#231f20" stroke-linecap="round" stroke-miterlimit="10" stroke-width=".15"/>
    <polyline points="21.01 44.78 20.63 44.99 20.49 44.58" fill="none" stroke="#231f20" stroke-linecap="round" stroke-miterlimit="10" stroke-width=".15"/>
    <polyline points="21.53 44.03 20.88 44.37 20.69 43.69" fill="none" stroke="#231f20" stroke-linecap="round" stroke-miterlimit="10" stroke-width=".15"/>
    <line x1="21.69" y1="43.63" x2="20.8" y2="44.1" fill="none" stroke="#231f20" stroke-linecap="round" stroke-miterlimit="10" stroke-width=".15"/>
    <line x1="20.85" y1="43.29" x2="21.14" y2="44.23" fill="none" stroke="#231f20" stroke-linecap="round" stroke-miterlimit="10" stroke-width=".15"/>
    <polyline points="21.39 44.1 20.97 42.6 21.74 40.67 21.91 41.79 22.86 41.12 22.08 43.05 20.73 43.84" fill="none" stroke="#231f20" stroke-linecap="round" stroke-miterlimit="10" stroke-width=".15"/>
    <polyline points="22.35 41.24 22.08 41.44 22.04 41.09" fill="none" stroke="#231f20" stroke-linecap="round" stroke-miterlimit="10" stroke-width=".15"/>
    <line x1="22.23" y1="42.66" x2="20.89" y2="43.44" fill="none" stroke="#231f20" stroke-linecap="round" stroke-miterlimit="10" stroke-width=".15"/>
    <line x1="21.12" y1="42.21" x2="21.55" y2="43.71" fill="none" stroke="#231f20" stroke-linecap="round" stroke-miterlimit="10" stroke-width=".15"/>
    <line x1="22.44" y1="42.15" x2="21.08" y2="42.99" fill="none" stroke="#231f20" stroke-linecap="round" stroke-miterlimit="10" stroke-width=".15"/>
    <line x1="21.33" y1="41.7" x2="21.73" y2="43.25" fill="none" stroke="#231f20" stroke-linecap="round" stroke-miterlimit="10" stroke-width=".15"/>
    <line x1="22.63" y1="41.67" x2="21.01" y2="42.75" fill="none" stroke="#231f20" stroke-linecap="round" stroke-miterlimit="10" stroke-width=".15"/>
    <line x1="21.52" y1="41.22" x2="21.94" y2="43.13" fill="none" stroke="#231f20" stroke-linecap="round" stroke-miterlimit="10" stroke-width=".15"/>
    <line x1="21.75" y1="42.24" x2="22.08" y2="41.44" fill="none" stroke="#231f20" stroke-linecap="round" stroke-miterlimit="10" stroke-width=".15"/>
    <polygon points="19.28 48.82 19.02 48.98 18.95 48.68 19.28 48.82" fill="#231f20"/>
    <polyline points="19.1 48.32 19.43 48.45 19.16 48.62" fill="#231f20"/>
    <polyline points="19.24 47.95 19.57 48.08 19.31 48.25" fill="#231f20"/>
    <polyline points="19.39 47.58 19.72 47.72 19.46 47.89" fill="#231f20"/>
    <polyline points="19.54 47.22 19.87 47.35 19.61 47.52" fill="#231f20"/>
  </g>
  <g>
    <polyline points="13.05 24.01 13.11 23.16 13.45 23.19 13.39 24.03 14.04 24.07 14.02 24.4 13.36 24.36" fill="none" stroke="#231f20" stroke-linecap="round" stroke-miterlimit="10" stroke-width=".2"/>
    <polyline points="13.37 24.36 13.27 26 12.92 25.97 13.03 24.34 12.38 24.3 12.4 23.96 13.06 24.01" fill="none" stroke="#231f20" stroke-linecap="round" stroke-miterlimit="10" stroke-width=".2"/>
  </g>
  <path d="M9.52,7.31c.57-3.43-.55-5.98-.55-5.98-.99-2.48-1.64.11-1.64.11-.99,3.09-.58,6.03-.58,6.03,0,0,.18,1.41,1.43,1.32,0,0,1.07.13,1.34-1.48Z" fill="#f171ab" stroke="#231f20" stroke-linecap="round" stroke-miterlimit="10" stroke-width=".5"/>
  <g>
    <path d="M5.08,20.1s-.64.04-.56,1.15c0,0-.07,1.2.71,1.15" fill="#e7b921" stroke="#231f20" stroke-linecap="round" stroke-miterlimit="10" stroke-width=".25"/>
    <path d="M11.06,19.98s.57-.04.63,1.07c0,0,.21,1.18-.48,1.23" fill="#e7b921" stroke="#231f20" stroke-linecap="round" stroke-miterlimit="10" stroke-width=".25"/>
    <g>
      <polygon points="8.16 17.64 11.01 19.28 11.12 22.62 8.38 24.45 5.26 22.82 5.16 19.56 8.16 17.64" fill="#b4e2f1" stroke="#231f20" stroke-linecap="round" stroke-miterlimit="10" stroke-width=".25"/>
      <polygon points="8.2 19.03 9.99 19.97 10.06 22.01 8.33 23.11 6.5 22.08 6.43 20.08 8.2 19.03" fill="#b4e2f1" stroke="#231f20" stroke-miterlimit="10" stroke-width=".15"/>
      <line x1="8.13" y1="17.64" x2="8.2" y2="19.03" fill="#b4e2f1" stroke="#231f20" stroke-linecap="round" stroke-miterlimit="10" stroke-width=".15"/>
      <line x1="11.01" y1="19.28" x2="9.99" y2="19.97" fill="#b4e2f1" stroke="#231f20" stroke-linecap="round" stroke-miterlimit="10" stroke-width=".15"/>
      <line x1="10.06" y1="22.01" x2="11.12" y2="22.62" fill="#b4e2f1" stroke="#231f20" stroke-linecap="round" stroke-miterlimit="10" stroke-width=".15"/>
      <line x1="8.38" y1="24.45" x2="8.33" y2="23.11" fill="#b4e2f1" stroke="#231f20" stroke-linecap="round" stroke-miterlimit="10" stroke-width=".15"/>
      <line x1="5.26" y1="22.82" x2="6.5" y2="22.08" fill="#b4e2f1" stroke="#231f20" stroke-linecap="round" stroke-miterlimit="10" stroke-width=".15"/>
      <line x1="5.16" y1="19.56" x2="6.43" y2="20.08" fill="#b4e2f1" stroke="#231f20" stroke-linecap="round" stroke-miterlimit="10" stroke-width=".15"/>
    </g>
  </g>
  <ellipse cx="8.38" cy="2.92" rx=".49" ry="1.21" transform="translate(-.17 .56) rotate(-3.79)" fill="#f9c7dd"/>
  <ellipse cx="8.36" cy="2.58" rx=".24" ry=".6" transform="translate(-.15 .56) rotate(-3.79)" fill="#fff" stroke="#f9c7dd" stroke-miterlimit="10" stroke-width=".1"/>
  <path d="M15.88,25.2l.15-3.88s.18-2.29,3.13-1.71c0,0,1.68.17,2.07,1.9.03.15.05.31.06.49l-.16,3.38" fill="#d2af8e" stroke="#231f20" stroke-linecap="round" stroke-miterlimit="10" stroke-width=".5"/>
  <g>
    <g>
      <polygon points="17.55 18.98 16.34 20.19 18.69 23.09 21.76 21.06 21.11 19.63 20.32 19.02 18.59 18.71 17.55 18.98" fill="#f067a6" stroke="#231f20" stroke-linecap="round" stroke-miterlimit="10" stroke-width=".25"/>
      <polyline points="21.11 19.63 20.1 19.91 18.37 19.6 17.55 18.98" fill="#f067a6" stroke="#231f20" stroke-linecap="round" stroke-miterlimit="10" stroke-width=".15"/>
      <polyline points="21.76 21.06 20.24 21.52 17.64 21.04 16.34 20.19" fill="#f067a6" stroke="#231f20" stroke-linecap="round" stroke-miterlimit="10" stroke-width=".15"/>
      <polyline points="20.09 19.96 20.24 21.55 18.69 23.09 17.64 21.07 18.37 19.65" fill="#f067a6" stroke="#231f20" stroke-linecap="round" stroke-miterlimit="10" stroke-width=".15"/>
    </g>
    <line x1="17.64" y1="21.04" x2="20.24" y2="21.52" fill="#f067a6" stroke="#231f20" stroke-linecap="round" stroke-miterlimit="10" stroke-width=".15"/>
  </g>
  <path d="M15.66,21.87c-1.21.59.11,1.64.11,1.64.37-.32,1.76-.45,1.76-.45,2.36-.12,3.9,1.36,3.9,1.36.85-.22.17-1.45.17-1.45,0,0-.19-.62-1.17-.94,0,0-1.25.45-2.89-.25,0,0-.61-.53-1.87.08Z" fill="#e6b822" stroke="#231f20" stroke-linecap="round" stroke-miterlimit="10" stroke-width=".25"/>
  <circle cx="18.62" cy="24.06" r=".29" fill="#231f20"/>
  <circle cx="18.62" cy="24.91" r=".24" fill="#231f20"/>
  <circle cx="18.64" cy="25.72" r=".21" fill="#231f20"/>
</svg>