<svg width="50" height="50" viewBox="0 0 50 50" fill="none" xmlns="http://www.w3.org/2000/svg">
<path d="M9.23159 26.7123L36.3149 45.4623C36.6275 45.6785 36.9932 45.8052 37.3726 45.8285C37.752 45.8518 38.1305 45.7708 38.4672 45.5945C38.8038 45.4181 39.0858 45.153 39.2826 44.8278C39.4794 44.5026 39.5835 44.1298 39.5837 43.7498V6.24975C39.5839 5.8695 39.4801 5.49642 39.2835 5.17097C39.0868 4.84551 38.8048 4.58008 38.4681 4.40344C38.1313 4.22681 37.7527 4.14571 37.3731 4.16893C36.9936 4.19215 36.6276 4.3188 36.3149 4.53517L9.23159 23.2852C8.95567 23.4777 8.73034 23.7341 8.57474 24.0324C8.41914 24.3307 8.33789 24.6622 8.33789 24.9987C8.33789 25.3352 8.41914 25.6667 8.57474 25.965C8.73034 26.2633 8.95567 26.5197 9.23159 26.7123Z" fill="black"/>
</svg>
